<svg width="326" height="280" viewBox="0 0 326 280" fill="none" xmlns="http://www.w3.org/2000/svg">
<g clip-path="url(#clip0_132_289)">
<path opacity="0.9" d="M59.7594 75.1092C58.7554 76.7873 56.6542 77.4972 54.847 77.8594C52.5378 78.3327 50.1497 78.4582 47.8119 78.6662L46.4529 78.9996C46.1958 79.0789 45.9566 79.2083 45.7497 79.3801C45.5425 79.5522 45.3715 79.7634 45.2463 80.0015C45.1208 80.2396 45.0441 80.5003 45.0197 80.7685C44.9953 81.0363 45.0244 81.3067 45.1047 81.5634C45.9455 84.4571 47.1023 87.2489 48.5541 89.8894L46.4027 92.0408C45.7931 91.2161 45.7644 89.771 44.9469 89.9109C44.1616 89.1256 43.2294 88.742 42.2648 89.7926C40.3787 91.8543 40.6835 96.1392 43.4553 97.3225L42.8349 100.41C42.6209 101.489 42.0396 102.461 41.1898 103.16C40.3397 103.859 39.274 104.241 38.1735 104.243L38.6504 100.589C35.4233 102.221 31.7623 98.6922 32.0169 95.7842C32.1819 93.7906 31.7301 92.4137 30.2564 90.9687C30.1595 90.8719 30.7512 90.5133 30.6615 90.4165C30.2456 89.1579 30.1882 87.6878 30.6006 86.8559C31.3177 85.3714 33.4297 84.5037 32.458 82.8829C32.0316 82.1766 31.7204 81.4067 31.5364 80.6024C31.3414 79.5361 31.3769 78.4403 31.6411 77.3886C31.9054 76.3373 32.3916 75.3544 33.0675 74.5068C34.5018 72.7856 36.8325 73.2482 38.7365 72.6386C41.0564 71.9215 42.1286 69.4366 44.5561 68.6693C45.7645 68.2856 46.8832 68.4613 48.0916 68.7374C49.1135 68.9741 50.1246 69.2394 51.1286 69.5549C52.1326 69.8705 53.0147 70.1322 53.9972 69.8382C55.2952 69.4796 56.2956 68.2677 57.712 68.2569C58.4187 68.2408 59.1104 68.4617 59.6769 68.8844C60.7239 70.7669 60.7311 73.4992 59.7594 75.1092Z" fill="#414BA6"/>
<path d="M15.3829 123.66C15.3829 123.66 -23.6545 80.6029 33.8348 59.1175C37.1684 57.8951 40.6429 57.0976 44.1759 56.7437C53.3517 55.7684 73.6359 52.3011 75.9738 40.5902" stroke="#CCDAE2" stroke-width="3" stroke-miterlimit="10"/>
<path d="M179.256 63.3844V63.3737" stroke="#CCDAE2" stroke-width="4.11" stroke-miterlimit="10"/>
<path d="M76.8271 140.91V140.9" stroke="black" stroke-width="4.11" stroke-miterlimit="10"/>
<path d="M46.306 91.7544C45.9238 91.0939 45.4691 90.4779 44.9506 89.9185C44.1653 89.1332 43.2331 88.7496 42.2685 89.8002C40.3824 91.8619 40.6872 96.1468 43.459 97.3301L42.8386 100.417C42.6246 101.497 42.0433 102.468 41.1935 103.167C40.3434 103.866 39.2777 104.249 38.1772 104.25" stroke="black" stroke-width="4.11" stroke-linecap="round" stroke-linejoin="round"/>
<path d="M36.4414 117.912C36.5992 116.714 36.99 113.569 37.3665 110.572C37.7251 107.793 38.0442 105.118 38.1697 104.236L38.6502 100.589" stroke="black" stroke-width="3" stroke-linecap="round" stroke-linejoin="round"/>
<path d="M52.1415 85.7681C52.0158 86.3059 52.3499 86.8438 52.8877 86.9695C53.4255 87.0951 53.9633 86.761 54.089 86.2232L52.1415 85.7681ZM58.5798 81.9797C58.5306 80.981 58.5301 80.981 58.5297 80.981C58.5295 80.981 58.5291 80.981 58.5287 80.981C58.5281 80.9811 58.5273 80.9811 58.5265 80.9812C58.5249 80.9812 58.523 80.9813 58.5208 80.9815C58.5164 80.9817 58.5109 80.982 58.5043 80.9824C58.4911 80.9833 58.4736 80.9845 58.452 80.9861C58.4088 80.9894 58.3491 80.9946 58.275 81.0025C58.127 81.0183 57.9204 81.0453 57.672 81.0903C57.1782 81.1799 56.5036 81.3441 55.7906 81.6452C54.3669 82.2465 52.6835 83.4487 52.1415 85.7681L54.089 86.2232C54.4327 84.7526 55.4815 83.9468 56.5687 83.4876C57.1112 83.2586 57.6366 83.1294 58.0291 83.0582C58.2238 83.0229 58.3818 83.0025 58.4877 82.9912C58.5406 82.9855 58.5801 82.9821 58.6044 82.9803C58.6165 82.9794 58.6248 82.9788 58.629 82.9786C58.6311 82.9784 58.6322 82.9784 58.6322 82.9784C58.6322 82.9784 58.632 82.9784 58.6315 82.9784C58.6312 82.9784 58.6309 82.9784 58.6305 82.9785C58.6303 82.9785 58.6299 82.9785 58.6298 82.9785C58.6295 82.9785 58.6291 82.9785 58.5798 81.9797Z" fill="black"/>
<path d="M60.2435 91.9945C61.4913 91.9623 63.1121 91.7794 63.7001 90.5137L60.5447 87.032C59.7749 86.1789 59.3195 85.0885 59.2539 83.9411C59.1284 82.0156 59.3543 78.9606 57.5112 76.9275" stroke="black" stroke-width="3" stroke-miterlimit="10"/>
<path d="M57.5449 87.175C58.0616 86.6035 58.0871 85.7852 57.6023 85.3471C57.1175 84.9085 56.3057 85.0168 55.7894 85.5884C55.2727 86.1596 55.2468 86.9782 55.7316 87.4163C56.2164 87.8545 57.0282 87.7466 57.5449 87.175Z" fill="black"/>
<path d="M57.2347 114.864L54.8574 103.34" stroke="black" stroke-width="3" stroke-miterlimit="10"/>
<path opacity="0.8" d="M117.5 166.731L102.178 179.259C120.612 207.371 106.66 212.531 106.66 212.531C103.954 213.049 101.221 213.416 98.4741 213.631C85.1496 214.592 71.481 211.154 60.498 203.452C38.2668 187.854 18.904 156.637 29.2309 129.457C30.0997 127.159 31.1614 124.937 32.4042 122.817C33.4752 120.974 34.8389 119.317 36.4417 117.911C39.2471 115.456 42.7019 113.862 46.3912 113.322C50.0802 112.782 53.847 113.319 57.2387 114.867C58.537 115.46 59.7651 116.196 60.8996 117.062C66.7049 121.504 71.983 127.819 76.5332 134.445C80.5732 140.438 84.2091 146.693 87.4158 153.17C88.3015 154.937 89.1047 156.608 89.8146 158.139C96.2509 155.536 101.647 151.115 106.667 146.339C100.597 157.67 117.5 166.731 117.5 166.731Z" fill="#353642"/>
<path d="M106.779 175.895C106.485 176.121 106.18 176.358 105.875 176.584" stroke="black" stroke-width="4.11" stroke-miterlimit="10"/>
<path d="M61.4805 128.267C65.5441 136.048 69.6081 143.844 73.6718 151.653C76.7376 157.548 81.9189 161.188 89.2158 158.394C97.1545 155.354 103.559 149.541 109.482 143.618C115.406 137.694 121.408 132.029 129.96 130.501C141.015 128.525 151.474 134.549 159.004 142.162C159.583 142.742 159.95 143.501 160.044 144.316C160.138 145.131 159.955 145.954 159.524 146.651C159.247 147.097 158.877 147.479 158.44 147.769C158.003 148.06 157.508 148.253 156.99 148.334C156.471 148.416 155.941 148.386 155.435 148.244C154.93 148.103 154.46 147.855 154.059 147.515C150.492 144.471 144.686 140.068 140.649 140.01" stroke="black" stroke-width="3" stroke-miterlimit="10"/>
<path d="M129.634 150.455C130.874 151.284 132.596 152.202 134.03 152.202" stroke="black" stroke-width="4.11" stroke-miterlimit="10"/>
<path d="M145.532 141.521C148.179 142.829 149.143 146.659 147.275 148.946C144.906 151.886 141.939 154.286 138.569 155.989C134.883 157.828 132.516 156.706 128.888 154.461" stroke="black" stroke-width="3" stroke-miterlimit="10"/>
<path d="M139.408 144.952C139.408 144.952 144.65 146.25 144.511 151.338C144.501 151.555 144.463 151.77 144.396 151.976" stroke="black" stroke-width="3" stroke-miterlimit="10"/>
<path d="M135.704 148.157C135.704 148.157 142.736 152.7 139.39 155.558" stroke="black" stroke-width="3" stroke-miterlimit="10"/>
<path opacity="0.8" d="M271.534 165.963C263.251 188.729 240.062 189.371 237.409 189.371C238.52 187.029 238.821 182.916 236.387 175.709C238.018 173.328 238.876 170.502 238.846 167.615C238.816 164.728 237.899 161.921 236.218 159.574C236.251 159.545 236.268 159.505 236.297 159.477C237.457 159.406 238.607 159.232 239.736 158.957C243.737 158.003 251.626 155.909 257.887 152.962C262.132 150.957 267.084 154.17 266.722 158.856C266.722 158.917 266.722 158.975 266.7 159.043C267.529 159.042 268.346 159.242 269.081 159.625C269.816 160.008 270.448 160.562 270.923 161.242C271.397 161.922 271.7 162.706 271.807 163.528C271.913 164.35 271.82 165.186 271.534 165.963Z" fill="#414BA6"/>
<path d="M165.243 219.359C162.454 224.145 158.111 228.222 153.916 231.779C139.147 244.279 119.852 250.626 100.489 250.873C81.062 250.626 61.6958 244.258 46.8582 231.869C-0.0247116 192.72 8.44827 146.497 16.032 125.094C16.2991 124.354 16.6607 123.652 17.1077 123.004C17.7007 122.137 18.4705 121.404 19.3666 120.856C20.2627 120.307 21.2646 119.954 22.307 119.82C26.2871 120.368 29.9015 123.671 29.2632 128.784C29.2632 128.981 29.1843 129.254 29.1664 129.451C18.8468 156.631 38.2167 187.847 60.4336 203.445C70.513 210.52 82.8549 213.998 95.118 213.772H95.2578C96.3095 213.75 97.3601 213.702 98.4096 213.625C105.298 213.123 111.992 211.474 118.622 209.476C126.403 207.149 134.098 204.327 141.872 202.352C144.604 201.656 147.343 200.985 150.097 200.358C151.686 200.032 153.312 199.92 154.931 200.024C164.479 200.67 171.188 209.161 165.243 219.359Z" fill="#D7DEF0"/>
<path d="M167.603 219.359C164.813 224.145 160.467 228.222 156.272 231.779C140.914 244.788 120.652 251.142 100.479 250.873C81.0513 250.626 61.6851 244.258 46.8475 231.869C-0.0245838 192.72 8.44839 146.497 16.0321 125.094C16.2993 124.354 16.6608 123.652 17.1078 123.004C17.7008 122.137 18.4706 121.404 19.3667 120.856C20.2628 120.307 21.265 119.954 22.307 119.82C26.2871 120.368 29.9015 123.671 29.2633 128.784C29.2633 128.981 29.1844 129.254 29.1665 129.451C18.8469 156.63 38.2167 187.847 60.4336 203.445C70.513 210.52 82.8549 213.998 95.118 213.772H95.2578C97.1055 213.801 98.9428 213.752 100.769 213.625C107.657 213.123 114.348 211.474 120.982 209.476C128.762 207.149 136.457 204.327 144.231 202.352C146.96 201.656 149.703 200.985 152.453 200.358C153.271 200.191 154.098 200.079 154.931 200.024C165.666 199.304 174.028 208.336 167.603 219.359Z" fill="#D7DEF0"/>
<path d="M103.716 250.808L108.435 257.484C108.435 257.484 136.988 258.596 152.614 271.712C155.504 274.14 153.776 278.855 150.004 278.855C149.058 278.858 148.142 278.525 147.419 277.915C143.729 274.817 129.634 265.079 97.7498 264.785C66.6834 264.494 54.7682 274.107 51.4729 277.611C51.0971 278.006 50.6443 278.321 50.1423 278.535C49.6403 278.749 49.0999 278.858 48.5542 278.855H47.941C44.0685 278.855 42.4298 273.964 45.4884 271.59C58.5331 261.446 87.7744 258.212 87.7744 258.212L92.7657 250.682" fill="#353642"/>
<path d="M230.079 213.786C230.079 213.786 238.825 222.094 236.096 247.85C235.897 249.689 235.258 251.453 234.232 252.992L233.281 254.426C231.723 256.76 229.373 258.451 226.666 259.188C220.954 260.748 210.591 264.362 204.191 271.211C201.487 274.112 203.499 278.838 207.464 278.838C208.204 278.84 208.932 278.659 209.585 278.311C210.237 277.963 210.794 277.459 211.204 276.844C213.811 272.921 221.703 264.592 240.74 264.767C262.211 264.965 270.859 273.502 273.631 277.181C274.014 277.694 274.511 278.111 275.083 278.398C275.655 278.686 276.286 278.836 276.926 278.838C277.729 278.836 278.513 278.6 279.184 278.159C279.854 277.719 280.382 277.091 280.701 276.355C281.02 275.619 281.118 274.806 280.982 274.015C280.846 273.224 280.482 272.49 279.935 271.903C271.562 262.806 261.322 259.414 255.67 258.155C252.831 257.543 250.323 255.893 248.639 253.526C247.35 251.701 246.616 249.542 246.527 247.309C246.211 239.323 246.046 219.939 251.457 213.793" fill="#353642"/>
<path d="M118.694 209.487C134.073 202.021 150.764 197.123 167.176 192.512C183.692 187.872 200.369 183.824 217.096 180.019C223.78 178.503 230.524 177.151 237.176 175.44" stroke="black" stroke-width="4.11" stroke-miterlimit="10"/>
<path d="M133.123 152.098H133.133H133.14" stroke="black" stroke-width="4.11" stroke-miterlimit="10"/>
<path d="M131.398 151.126C130.433 152.08 126.991 157.175 126.127 158.09C121.379 163.178 116.336 167.981 111.024 172.476C109.686 173.587 108.27 174.735 106.778 175.896C106.484 176.122 106.18 176.359 105.875 176.585C95.7631 184.258 82.5677 191.645 70.3764 186.912C70.0537 186.793 69.7382 186.657 69.4262 186.517C50.7269 178.145 37.657 157.175 36.5168 136.934C36.4773 136.274 36.4558 135.618 36.4486 134.969C36.3482 129.437 37.1658 123.904 42.4726 120.985" stroke="black" stroke-width="3" stroke-miterlimit="10"/>
<path d="M29.2594 129.379L29.3347 128.791C30.5251 119.246 16.9713 116.026 13.7549 125.094C6.17478 146.493 -2.30178 192.706 44.5918 231.861C74.8586 257.144 123.861 257.32 154.013 231.779C158.208 228.226 162.55 224.141 165.343 219.355C172.411 207.249 161.618 197.543 149.444 200.523" stroke="black" stroke-width="4.11" stroke-miterlimit="10"/>
<path opacity="0.8" d="M103.716 250.808L108.435 257.484C108.435 257.484 136.988 258.596 152.614 271.712C155.504 274.14 153.776 278.855 150.004 278.855C149.058 278.858 148.142 278.525 147.419 277.915C143.729 274.817 129.634 265.079 97.7498 264.785C66.6834 264.494 54.7682 274.107 51.4729 277.611C51.0971 278.006 50.6443 278.321 50.1423 278.535C49.6403 278.749 49.0999 278.858 48.5542 278.855H47.941C44.0685 278.855 42.4298 273.964 45.4884 271.59C58.5331 261.446 87.7744 258.212 87.7744 258.212L92.7657 250.682" stroke="black" stroke-width="4.11" stroke-miterlimit="10"/>
<path d="M87.7744 152.597C99.7434 149.37 104.674 132.485 106.66 121.133" stroke="black" stroke-width="3" stroke-miterlimit="10"/>
<path d="M76.5225 134.456C79.8475 134.021 83.0054 132.74 85.6939 130.736C88.3828 128.732 90.5127 126.072 91.88 123.01C92.1661 122.401 92.3052 121.734 92.2866 121.061C92.2679 120.388 92.0919 119.73 91.7724 119.138C90.4672 116.721 88.5202 113.921 88.9827 111.023C89.3162 108.98 90.9979 107.542 92.927 107.079C93.9048 106.823 94.9346 106.84 95.9031 107.129C96.4836 107.294 97.0204 107.585 97.4743 107.983C97.9283 108.38 98.2879 108.874 98.5278 109.428C98.9975 110.529 98.4382 111.619 97.574 112.336C96.7099 113.053 95.6987 113.307 94.6445 113.594C94.5083 113.634 94.1354 113.713 93.723 113.792" stroke="black" stroke-width="3" stroke-miterlimit="10"/>
<path d="M237.161 175.434C237.161 175.434 260.755 170.492 265.187 163.375C266.018 162.077 266.535 160.604 266.7 159.072" stroke="black" stroke-width="4.11" stroke-miterlimit="10"/>
<path d="M121.064 163.278C162.217 158.907 208.666 159.552 208.666 159.552H234.734C236.418 159.555 238.097 159.357 239.736 158.964C243.737 158.011 251.626 155.92 257.886 152.969C262.132 150.965 267.084 154.177 266.722 158.868C266.722 158.925 266.722 158.986 266.7 159.054C267.527 159.054 268.342 159.254 269.076 159.636C269.809 160.018 270.44 160.571 270.914 161.249C271.388 161.927 271.692 162.709 271.8 163.529C271.908 164.349 271.816 165.183 271.534 165.96C262.741 190.124 237.161 189.367 237.161 189.367C233.891 189.464 230.628 189.593 227.354 189.762C198.515 191.164 169.929 195.212 141.947 202.358C134.173 204.334 126.478 207.152 118.697 209.483C112.064 211.488 105.362 213.126 98.4739 213.628C85.1495 214.593 71.4809 211.15 60.4979 203.448C36.4415 186.567 15.7378 151.37 32.404 122.799C38.2882 112.716 51.6126 109.955 60.8995 117.062C73.998 127.084 84.4611 146.608 89.8288 158.125" stroke="black" stroke-width="4.11" stroke-miterlimit="10"/>
<path d="M152.052 26.0825C152.052 26.0825 165.509 67.7052 217.311 65.4569C234.523 63.3055 255.008 65.4569 273.248 89.4811C300.976 126.026 289.843 166.738 277.242 192.58" stroke="#CCDAE2" stroke-width="3" stroke-miterlimit="10"/>
<path d="M270.988 213.786H213.718" stroke="black" stroke-width="4.11" stroke-miterlimit="10"/>
<path d="M202.158 202.218C202.166 199.152 203.388 196.215 205.555 194.047C207.722 191.879 210.66 190.657 213.725 190.647H271.003C274.069 190.655 277.007 191.877 279.175 194.046C281.344 196.214 282.565 199.152 282.574 202.218" stroke="black" stroke-width="4.11" stroke-miterlimit="10"/>
<path d="M283.7 206.321C283.703 207.302 283.512 208.275 283.137 209.182C282.763 210.089 282.213 210.913 281.518 211.607C280.824 212.301 280 212.851 279.092 213.225C278.185 213.599 277.212 213.789 276.231 213.786H208.461C206.765 213.625 205.2 212.806 204.101 211.503C203.003 210.2 202.46 208.518 202.588 206.819C202.717 205.12 203.507 203.539 204.789 202.417C206.072 201.294 207.743 200.72 209.444 200.817H277.213C278.416 200.815 279.602 201.104 280.669 201.661C281.735 202.217 282.651 203.024 283.338 204.012C283.578 204.758 283.7 205.537 283.7 206.321Z" fill="#D7DEF0"/>
<path d="M283.7 206.32C283.703 207.302 283.511 208.274 283.137 209.181C282.763 210.088 282.213 210.913 281.518 211.607C280.824 212.3 280 212.85 279.092 213.224C278.185 213.598 277.212 213.789 276.231 213.786H208.461C207.467 213.807 206.478 213.63 205.553 213.265C204.628 212.899 203.785 212.353 203.075 211.657C202.364 210.961 201.799 210.131 201.413 209.214C201.027 208.298 200.829 207.313 200.829 206.318C200.829 205.324 201.027 204.339 201.413 203.422C201.799 202.505 202.364 201.675 203.075 200.979C203.785 200.284 204.628 199.737 205.553 199.372C206.478 199.006 207.467 198.829 208.461 198.851H276.231C277.809 198.85 279.346 199.349 280.623 200.276C281.9 201.203 282.85 202.51 283.338 204.011C283.578 204.757 283.7 205.536 283.7 206.32Z" stroke="black" stroke-width="4.11" stroke-miterlimit="10"/>
<path d="M106.531 120.867L106.395 122.018C106.332 122.54 106.081 123.021 105.688 123.371C105.294 123.721 104.787 123.914 104.261 123.915H96.8135C96.2875 123.914 95.7802 123.721 95.3868 123.371C94.9938 123.021 94.7425 122.54 94.6801 122.018L93.7191 113.771C94.1315 113.692 94.5044 113.613 94.6406 113.574C95.6948 113.287 96.7167 113.043 97.5701 112.315C98.4235 111.587 99.0044 110.522 98.5239 109.407C98.284 108.853 97.9244 108.36 97.4704 107.962C97.0165 107.565 96.4797 107.273 95.8992 107.109C94.9304 106.82 93.9009 106.802 92.9231 107.058L92.6972 105.093C92.6638 104.793 92.6943 104.489 92.7865 104.202C92.8783 103.914 93.0299 103.649 93.2311 103.424C93.4322 103.198 93.6789 103.018 93.9543 102.894C94.2301 102.77 94.5288 102.706 94.8307 102.705H106.258C106.56 102.706 106.858 102.771 107.134 102.895C107.409 103.019 107.655 103.199 107.855 103.425C108.056 103.65 108.207 103.915 108.299 104.202C108.391 104.49 108.421 104.793 108.388 105.093L108.123 107.334" stroke="black" stroke-width="2" stroke-miterlimit="10"/>
<path d="M107.524 112.458L107.514 112.537" stroke="black" stroke-width="4.11" stroke-miterlimit="10"/>
<path d="M106.965 117.195V117.163" stroke="black" stroke-width="4.11" stroke-miterlimit="10"/>
<path d="M107.073 117.194C107.041 117.189 107.008 117.189 106.976 117.194C106.931 117.189 106.885 117.189 106.84 117.194C106.375 117.196 105.928 117.372 105.587 117.687C105.246 118.003 105.036 118.435 104.998 118.899C104.961 119.362 105.099 119.822 105.384 120.188C105.67 120.555 106.083 120.801 106.542 120.877C106.739 120.916 106.943 120.916 107.141 120.877C108.036 120.734 108.853 120.282 109.45 119.6C110.246 118.291 110.798 116.85 111.081 115.344C111.086 115.329 111.086 115.312 111.081 115.297C111.3 114.188 111.383 113.056 111.329 111.927M111.329 111.927C111.329 111.443 111.268 110.962 111.21 110.492C111.101 109.706 110.742 108.977 110.186 108.411C109.63 107.844 108.907 107.472 108.123 107.348C108.084 107.348 108.037 107.348 107.998 107.326C106.492 107.14 104.38 107.71 103.989 109.41C103.63 110.944 105.294 112.26 106.66 112.379C106.66 112.379 107.019 112.425 107.524 112.457C108.536 112.526 110.217 112.515 111.329 111.927ZM111.329 111.927C111.492 111.842 111.646 111.74 111.788 111.622" stroke="black" stroke-width="3" stroke-miterlimit="10"/>
<path d="M108.643 112.541H108.396H106.484H105.642C105.072 112.543 104.525 112.763 104.112 113.156C103.699 113.548 103.452 114.084 103.422 114.653C103.394 115.206 103.573 115.749 103.922 116.178C104.272 116.608 104.768 116.892 105.316 116.977C107.79 117.375 110.615 117.457 111.099 115.241" stroke="black" stroke-width="3" stroke-miterlimit="10"/>
<path opacity="0.8" d="M230.079 213.786C230.079 213.786 238.825 222.094 236.096 247.85C235.897 249.689 235.258 251.453 234.232 252.992L233.281 254.426C231.723 256.76 229.373 258.451 226.666 259.188C220.954 260.748 210.591 264.362 204.191 271.211C201.487 274.112 203.499 278.838 207.464 278.838C208.204 278.84 208.932 278.659 209.585 278.311C210.237 277.963 210.794 277.459 211.204 276.844C213.811 272.921 221.703 264.592 240.74 264.767C262.211 264.965 270.859 273.502 273.631 277.181C274.014 277.694 274.511 278.111 275.083 278.398C275.655 278.686 276.286 278.836 276.926 278.838C277.729 278.836 278.513 278.6 279.184 278.159C279.854 277.719 280.382 277.091 280.701 276.355C281.02 275.619 281.118 274.806 280.982 274.015C280.846 273.224 280.482 272.49 279.935 271.903C271.562 262.806 261.322 259.414 255.67 258.155C252.831 257.543 250.323 255.893 248.639 253.526C247.35 251.701 246.616 249.542 246.527 247.309C246.211 239.323 246.046 219.939 251.457 213.793" stroke="black" stroke-width="4.11" stroke-miterlimit="10"/>
<path d="M211.9 153.585V154.166C211.9 158.142 208.694 158.827 205.926 158.895L152.353 160.143C150.004 160.201 148.028 158.15 147.978 155.582V155.475C147.978 152.965 149.828 150.867 152.145 150.813C152.145 150.813 182.117 149.967 205.324 149.329C205.769 150.734 206.844 151.817 208.192 152.667C209.309 153.335 210.6 153.655 211.9 153.585Z" stroke="black" stroke-width="4.11" stroke-miterlimit="10"/>
<path d="M240.377 96.8956C240.38 97.5499 240.23 98.1954 239.94 98.7816L215.98 147.898C215.699 148.468 215.297 148.97 214.801 149.369C214.306 149.767 213.729 150.052 213.112 150.204C212.123 150.457 211.075 150.351 210.157 149.903C209.421 149.541 208.802 148.978 208.37 148.281C207.939 147.584 207.712 146.779 207.715 145.959C207.717 145.757 207.732 145.556 207.758 145.356C207.822 144.912 207.955 144.48 208.153 144.076L232.109 94.9521C232.542 94.0708 233.26 93.3615 234.147 92.9405C235.034 92.5199 236.038 92.4116 236.995 92.6343C237.951 92.8566 238.804 93.3966 239.415 94.1658C240.025 94.9353 240.357 95.8883 240.356 96.8705L240.377 96.8956Z" stroke="black" stroke-width="4.11" stroke-miterlimit="10"/>
<path d="M46.4062 92.048C46.3775 91.9476 46.3381 91.8508 46.3058 91.754C46.2735 91.6572 46.2269 91.546 46.1982 91.4385" stroke="black" stroke-width="4.11" stroke-linecap="round" stroke-linejoin="round"/>
<path d="M46.4062 92.0516L47.1413 91.3129L48.5469 89.8894" stroke="black" stroke-width="4.11" stroke-linecap="round" stroke-linejoin="round"/>
<path d="M55.6264 93.6784C55.451 93.1547 54.8842 92.8724 54.3605 93.0479C53.8369 93.2233 53.5546 93.7901 53.73 94.3138L55.6264 93.6784ZM54.6782 93.9961C53.73 94.3138 53.7302 94.3143 53.7304 94.3149C53.7305 94.315 53.7306 94.3156 53.7308 94.316C53.731 94.3168 53.7313 94.3176 53.7316 94.3185C53.7322 94.3202 53.7329 94.3222 53.7336 94.3243C53.7351 94.3285 53.7368 94.3334 53.7387 94.339C53.7427 94.3501 53.7478 94.364 53.7539 94.3804C53.7663 94.4132 53.7832 94.4562 53.8053 94.5081C53.8492 94.6117 53.9138 94.7514 54.0028 94.9156C54.1803 95.2429 54.4592 95.675 54.8728 96.1134C55.7146 97.0058 57.0849 97.8894 59.1722 97.9995L59.2775 96.0023C57.7612 95.9223 56.8583 95.3036 56.3276 94.741C56.055 94.452 55.8729 94.1685 55.7609 93.9622C55.7053 93.8595 55.668 93.7778 55.6463 93.7267C55.6355 93.7012 55.6287 93.6836 55.6254 93.6751C55.6238 93.6708 55.6232 93.6689 55.6233 93.6694C55.6234 93.6696 55.6237 93.6705 55.6242 93.672C55.6245 93.6727 55.6248 93.6736 55.6252 93.6747C55.6254 93.6753 55.6256 93.6758 55.6258 93.6764C55.6259 93.6768 55.626 93.6772 55.6261 93.6774C55.6262 93.6779 55.6264 93.6784 54.6782 93.9961Z" fill="black"/>
<path d="M38.6503 100.589C35.4232 102.221 31.7622 98.6923 32.0168 95.7843C32.1817 93.7907 31.7299 92.4141 30.2562 90.9687C30.1594 90.8719 30.0698 90.7715 29.9837 90.6747C29.4225 90.0644 29.0579 89.2996 28.9363 88.4792C28.8148 87.6591 28.9424 86.8212 29.3024 86.0743C29.9729 84.5145 31.418 83.6001 30.414 81.9184C29.9733 81.1913 29.6517 80.3985 29.4602 79.5698C29.2597 78.4712 29.2974 77.3424 29.5703 76.2592C29.8431 75.1763 30.3448 74.1644 31.0415 73.2913C32.5188 71.4984 34.9248 71.9933 36.9005 71.3658C39.2778 70.6092 40.3894 68.0526 42.885 67.2673C44.1328 66.8765 45.291 67.0522 46.5388 67.3355C47.5894 67.5829 48.6436 67.859 49.6655 68.1817C50.6875 68.5044 51.6197 68.7805 52.6417 68.4757C53.9791 68.0849 55.0082 66.855 56.464 66.8442C57.9198 66.8335 59.0385 67.6904 59.6911 68.8881C60.7238 70.767 60.731 73.4992 59.7592 75.12C58.7552 76.7981 56.654 77.5081 54.8469 77.8702C52.5377 78.3435 50.1496 78.469 47.8117 78.677L46.4528 79.0105C45.9357 79.1711 45.5036 79.5297 45.2508 80.0083C44.998 80.487 44.9453 81.0464 45.1045 81.5635C45.9454 84.4571 47.1021 87.2493 48.554 89.8894" stroke="black" stroke-width="3" stroke-miterlimit="10"/>
<path d="M48.5469 101.001C48.5469 101.001 55.6609 106.211 59.7163 103.339C63.7717 100.467 61.4804 92.0476 61.4804 92.0476" stroke="black" stroke-width="3" stroke-linecap="round" stroke-linejoin="round"/>
<path d="M98.8145 99.1086C98.8145 99.1086 95.7918 97.0648 97.7137 94.9779C99.6357 92.891 97.0755 90.1372 97.0755 90.1372" stroke="black" stroke-miterlimit="10"/>
<path d="M101.604 99.4632C101.604 99.4632 103.605 98.1114 102.322 96.7274C101.038 95.3433 102.748 93.5002 102.748 93.5002" stroke="black" stroke-miterlimit="10"/>
<path d="M115.391 79.9868C137.159 79.9868 154.805 62.3406 154.805 40.5729C154.805 18.8053 137.159 1.15906 115.391 1.15906C93.6238 1.15906 75.9775 18.8053 75.9775 40.5729C75.9775 62.3406 93.6238 79.9868 115.391 79.9868Z" stroke="#CCDAE2" stroke-width="3" stroke-miterlimit="10"/>
<path d="M115.391 62.2186C127.346 62.2186 137.038 52.5269 137.038 40.5718C137.038 28.6164 127.346 18.925 115.391 18.925C103.436 18.925 93.7446 28.6164 93.7446 40.5718C93.7446 52.5269 103.436 62.2186 115.391 62.2186Z" stroke="#CCDAE2" stroke-width="3" stroke-miterlimit="10"/>
<path d="M115.391 44.2827C117.441 44.2827 119.103 42.6211 119.103 40.5715C119.103 38.522 117.441 36.8604 115.391 36.8604C113.342 36.8604 111.68 38.522 111.68 40.5715C111.68 42.6211 113.342 44.2827 115.391 44.2827Z" stroke="#CCDAE2" stroke-width="3" stroke-miterlimit="10"/>
<path d="M123.075 28.1804L117.345 37.4172" stroke="#CCDAE2" stroke-width="3" stroke-miterlimit="10"/>
<path d="M115.391 18.925V22.7761" stroke="#CCDAE2" stroke-width="4.11" stroke-miterlimit="10"/>
<path d="M137.038 40.5723H133.388" stroke="#CCDAE2" stroke-width="4.11" stroke-miterlimit="10"/>
<path d="M115.391 62.223V58.4795" stroke="#CCDAE2" stroke-width="4.11" stroke-miterlimit="10"/>
<path d="M93.7407 40.5723H97.0324" stroke="#CCDAE2" stroke-width="4.11" stroke-miterlimit="10"/>
<path d="M153.166 106.105C161.266 106.105 167.832 99.5385 167.832 91.4391C167.832 83.3394 161.266 76.7737 153.166 76.7737C145.067 76.7737 138.501 83.3394 138.501 91.4391C138.501 99.5385 145.067 106.105 153.166 106.105Z" fill="#414BA6"/>
<path d="M157.989 86.5407C157.782 86.0638 157.504 85.6213 157.164 85.2283C156.583 84.541 155.771 84.0888 154.881 83.9568C153.991 83.8249 153.083 84.0221 152.327 84.5112C151.835 84.8325 151.423 85.2635 151.124 85.7705C150.826 86.2775 150.648 86.8465 150.606 87.4335C149.834 87.1506 148.991 87.1262 148.204 87.3643C147.417 87.6021 146.729 88.0897 146.243 88.7531C145.758 89.4164 145.501 90.2196 145.512 91.0418C145.522 91.8636 145.8 92.66 146.303 93.3105C147.354 94.6802 149.14 95.5802 150.757 96.1037C151.605 96.3752 152.478 96.5602 153.363 96.6559C153.812 96.7061 156.368 97.0503 156.591 96.6559C158.186 94.1603 159.319 89.5885 157.989 86.5407Z" fill="white"/>
<g opacity="0.72">
<path opacity="0.72" d="M189.719 85.3682C194.179 85.3682 197.794 81.7531 197.794 77.2932C197.794 72.8337 194.179 69.2183 189.719 69.2183C185.259 69.2183 181.644 72.8337 181.644 77.2932C181.644 81.7531 185.259 85.3682 189.719 85.3682Z" fill="#414BA6"/>
<path opacity="0.72" d="M193.222 78.7235C193.422 78.5199 193.589 78.2864 193.717 78.0315C193.947 77.5919 194.009 77.0831 193.891 76.6011C193.773 76.1192 193.483 75.6968 193.075 75.4139C192.809 75.23 192.504 75.1102 192.183 75.064C191.863 75.0181 191.536 75.0471 191.229 75.1486C191.211 74.6961 191.047 74.2615 190.761 73.9104C190.475 73.5594 190.083 73.3109 189.643 73.2023C189.204 73.094 188.741 73.1313 188.324 73.3091C187.908 73.4866 187.56 73.795 187.335 74.1876C186.895 75.0754 186.725 76.0726 186.843 77.0562C186.884 77.5417 186.972 78.0221 187.109 78.4904C187.177 78.7307 187.535 80.104 187.779 80.147C189.382 80.416 191.949 80.0395 193.222 78.7235Z" fill="white"/>
</g>
<path d="M178.148 115.425L174.309 123.542C172.917 126.485 174.175 129.999 177.118 131.391L185.234 135.23C188.177 136.622 191.692 135.364 193.084 132.421L196.922 124.304C198.314 121.361 197.056 117.847 194.113 116.455L185.997 112.617C183.053 111.225 179.539 112.482 178.148 115.425Z" fill="#414BA6"/>
<path d="M194.732 125.725L191.953 131.602C191.37 132.826 190.326 133.77 189.05 134.227C187.774 134.685 186.368 134.619 185.14 134.044L178.091 130.709C176.867 130.125 175.924 129.082 175.468 127.805C175.011 126.529 175.077 125.124 175.653 123.896L175.839 123.502C177.754 121.974 181.063 119.916 182.272 122.717C184.011 126.761 186.273 125.456 189.163 123.764C191.577 122.337 194.474 121.86 194.732 125.725Z" fill="white"/>
<path d="M183.813 119.479C185.011 119.479 185.983 118.508 185.983 117.31C185.983 116.112 185.011 115.141 183.813 115.141C182.615 115.141 181.644 116.112 181.644 117.31C181.644 118.508 182.615 119.479 183.813 119.479Z" fill="white"/>
<path d="M220.825 88.8033C221.256 89.5896 221.569 90.4355 221.754 91.3133C222.082 92.9189 221.988 94.5827 221.48 96.1407C220.972 97.699 220.068 99.0985 218.856 100.202C217.896 101.052 216.673 101.715 215.701 102.605C214.992 103.216 214.47 104.016 214.195 104.91C214.145 105.216 214.022 105.505 213.837 105.753C213.27 106.362 212.714 105.394 212.223 105.229C211.431 104.972 210.572 105.014 209.81 105.348C207.804 106.186 205.571 106.305 203.488 105.685C201.404 105.065 199.6 103.743 198.38 101.944C197.16 100.145 196.6 97.9791 196.794 95.8144C196.989 93.6494 197.926 91.6184 199.447 90.0654C200.95 88.5344 202.915 87.5555 204.826 86.5586C206.497 85.673 208.16 84.73 209.975 84.1993C214.227 82.9264 218.767 85.0455 220.825 88.8033Z" fill="#414BA6"/>
<path d="M203.7 99.8794C204.828 99.8794 205.743 98.9644 205.743 97.8356C205.743 96.7068 204.828 95.7917 203.7 95.7917C202.571 95.7917 201.656 96.7068 201.656 97.8356C201.656 98.9644 202.571 99.8794 203.7 99.8794Z" fill="white"/>
<path d="M209.204 96.9353C210.332 96.9353 211.247 96.0203 211.247 94.8915C211.247 93.7627 210.332 92.8477 209.204 92.8477C208.075 92.8477 207.16 93.7627 207.16 94.8915C207.16 96.0203 208.075 96.9353 209.204 96.9353Z" fill="white"/>
<path d="M214.367 94.1746C215.496 94.1746 216.411 93.2595 216.411 92.1308C216.411 91.002 215.496 90.0869 214.367 90.0869C213.238 90.0869 212.323 91.002 212.323 92.1308C212.323 93.2595 213.238 94.1746 214.367 94.1746Z" fill="white"/>
<g opacity="0.54">
<path opacity="0.54" d="M226.931 42.4293C226.88 43.0572 226.784 43.6804 226.641 44.2939L225.027 51.2931C224.533 53.4445 223.977 55.6964 222.442 57.2669C219.574 60.1928 214.805 59.5223 210.817 58.6366L201.028 56.4637C198.78 55.9653 196.496 55.4525 194.481 54.3374C192.466 53.2222 190.716 51.3971 190.25 49.1417C189.891 47.478 190.275 45.7568 190.641 44.1002L192.118 37.3807C192.609 35.179 193.161 32.8555 194.75 31.2527C197.579 28.4021 202.28 29.0511 206.188 29.9009L216.214 32.081C222.259 33.3862 227.412 36.1902 226.931 42.4293Z" fill="#414BA6"/>
<path opacity="0.54" d="M213.431 42.6161C213.851 43.0059 214.16 43.4993 214.328 44.0464C214.496 44.594 214.517 45.1759 214.389 45.7339C214.26 46.2918 213.987 46.806 213.597 47.2252C213.207 47.644 212.713 47.9527 212.166 48.1202L209.182 49.0345L206.199 49.9488C205.652 50.1163 205.07 50.1367 204.512 50.008C203.954 49.8793 203.44 49.6064 203.021 49.2159C202.602 48.8258 202.293 48.3324 202.125 47.7849C201.958 47.2377 201.936 46.6558 202.065 46.0978L202.782 43.0572L203.481 40.0201C203.609 39.4618 203.881 38.9472 204.271 38.5277C204.662 38.1085 205.155 37.7991 205.703 37.6313C206.25 37.4631 206.832 37.4427 207.39 37.5711C207.948 37.6998 208.462 37.973 208.881 38.3635L211.165 40.4898L213.431 42.6161Z" fill="white"/>
</g>
<path d="M15.5156 278.838H325.147" stroke="black" stroke-width="4.11" stroke-miterlimit="10"/>
</g>
<defs>
<clipPath id="clip0_132_289">
<rect width="324.294" height="280" fill="white" transform="translate(0.853027)"/>
</clipPath>
</defs>
</svg>
