<svg width="318" height="206" viewBox="0 0 318 206" fill="none" xmlns="http://www.w3.org/2000/svg">
<path opacity="0.5" d="M301.37 202.714H201.431H208.354L271.563 201.982C283.248 200.966 291.482 189.505 287.043 178.653C286.275 176.779 287.078 176.257 286.128 174.449C276.191 155.739 258.963 140.497 239.44 131.643C239.924 131.552 240.411 131.485 240.908 131.419C237.273 129.598 233.528 128.003 229.696 126.643C227.664 125.918 225.607 125.263 223.554 124.688C213.459 121.843 199.819 123.143 195.524 134.32C191.911 143.703 196.708 155.038 205.73 159.148L221.935 165.342C221.799 165.139 221.676 164.936 221.55 164.722L235.642 170.108C235.922 170.304 236.135 170.58 236.253 170.901C236.371 171.221 236.388 171.57 236.302 171.9C236.217 172.231 236.032 172.527 235.773 172.75C235.514 172.972 235.193 173.11 234.854 173.145L200.629 176.884C195.695 177.382 189.518 179.445 185.881 182.84C183.229 185.293 180.993 188.632 181.014 192.858C178.777 193.026 176.554 193.339 174.357 193.793C171.004 194.515 167.591 195.759 167.349 197.802C166.873 201.901 172.7 202.735 176.372 202.735L153.135 202.644C155.629 202.644 155.938 202.623 157.591 200.976C159.245 199.329 161.095 198.061 161.095 195.566L161.298 187.571C161.298 185.924 161.691 184.592 160.044 184.592H145.328C145.927 184.609 146.518 184.452 147.031 184.141C147.544 183.831 147.956 183.379 148.219 182.84C148.23 182.828 148.237 182.812 148.24 182.795C148.976 181.428 149.144 179.463 149.007 177.602L149.179 176.993L149.62 175.367L158.968 169.866C159.038 169.825 159.106 169.781 159.172 169.733C164.049 166.751 164.659 161.422 162.987 156.657C162.952 156.565 162.931 156.485 162.896 156.408C162.819 156.205 162.749 156.012 162.661 155.819C162.215 154.733 161.662 153.693 161.011 152.715C158.597 148.945 155.093 145.872 151.765 145.069C150.831 144.859 149.877 144.753 148.92 144.754C160.503 133.892 173.849 124.239 189.613 121.03C203.405 118.181 217.669 118.552 231.294 122.116C247.215 126.352 261.553 135.147 272.922 147.025C288.227 162.991 295.385 181.646 301.37 202.714Z" fill="#353642"/>
<path d="M145.661 154.708C145.111 155.79 144.212 156.654 143.11 157.161C142.168 157.634 141.172 157.987 140.142 158.212C138.446 158.496 137.847 157.424 136.765 156.372C136.147 155.776 135.437 155.284 134.662 154.915C134.198 154.687 133.689 154.564 133.171 154.557C132.654 154.549 132.141 154.656 131.67 154.869C131.351 155.012 131.08 155.243 130.89 155.536C130.699 155.829 130.598 156.171 130.598 156.52C130.668 157.805 132.441 158.822 133.443 159.354C134.751 159.972 136.111 160.474 137.507 160.854C140.931 161.905 135.23 164.095 134.032 164.231C131.469 164.579 128.867 164.517 126.323 164.049C127.053 165.681 127.614 167.383 127.995 169.13C128.39 170.801 128.853 172.812 128.527 174.494C128.131 176.47 126.796 177.938 125.149 178.933L118.748 152.227C121.109 151.103 123.676 150.479 126.289 150.393C128.902 150.307 131.505 150.762 133.934 151.73C134.744 152.029 135.622 152.088 136.465 151.902C137.308 151.716 138.08 151.291 138.688 150.679L139.343 150.045C140.256 149.846 141.207 149.922 142.076 150.262C143.629 150.847 146.502 152.728 145.661 154.708Z" fill="#A30000"/>
<path d="M152.234 184.571H125.801C125.534 187.064 124.354 189.371 122.489 191.047C120.623 192.723 118.204 193.649 115.696 193.649H26.833C26.8386 196.052 27.7959 198.355 29.4952 200.055C31.1945 201.754 33.4976 202.711 35.9008 202.717H152.227C154.63 202.708 156.933 201.751 158.633 200.052C160.334 198.354 161.294 196.052 161.305 193.649V187.552C161.305 186.762 160.991 186.003 160.432 185.444C159.873 184.885 159.114 184.571 158.324 184.571H152.234Z" stroke="black" stroke-width="2.5" stroke-miterlimit="10"/>
<path d="M111.415 125.294C112.196 126.369 112.756 127.589 113.065 128.882L125.588 181.088C125.865 182.221 125.937 183.395 125.801 184.553C125.534 187.047 124.354 189.354 122.489 191.03C120.624 192.705 118.204 193.632 115.697 193.632H25.1829C22.8977 193.63 20.6791 192.86 18.885 191.445C17.0908 190.029 15.8251 188.051 15.2917 185.829L2.78314 133.622C2.42186 132.127 2.4049 130.569 2.73356 129.066C3.06218 127.563 3.72787 126.154 4.68038 124.946C5.63288 123.737 6.84733 122.761 8.2321 122.091C9.61688 121.42 11.1358 121.073 12.6744 121.075H103.174C104.661 121.073 106.129 121.399 107.476 122.029C108.822 122.66 110.013 123.579 110.963 124.723L111.415 125.294Z" stroke="black" stroke-width="2.5" stroke-miterlimit="10"/>
<path d="M67.503 171.668C72.6574 170.043 75.3554 164.029 73.5288 158.236C71.7023 152.443 66.043 149.064 60.8882 150.689C55.7338 152.314 53.0358 158.328 54.8624 164.121C56.6889 169.914 62.3482 173.293 67.503 171.668Z" fill="#E8D7F0"/>
<path opacity="0.5" d="M241.403 131.114C233.417 132.449 227.279 136.099 223.158 143.657C219.469 150.419 219.038 158.671 222.973 165.381L206.908 159.221C197.605 154.96 194.333 145.493 198.061 135.77C202.493 124.187 216.557 122.841 226.967 125.791C229.087 126.387 231.203 127.067 233.298 127.816C236.036 128.798 238.737 129.897 241.403 131.114Z" fill="#353642"/>
<path d="M54.3105 121.083C60.684 112.847 69.4725 106.81 79.4468 103.816C78.1182 100.247 77.0642 96.5819 76.2934 92.8524C68.0174 52.6008 93.9 13.2496 134.141 4.94911C174.382 -3.35139 213.747 22.5207 222.044 62.7618C222.972 67.2712 223.488 71.8555 223.586 76.4581C226.461 75.4382 229.403 74.6186 232.391 74.0055C267.559 66.7351 301.966 89.3626 309.226 124.537C311.275 134.427 310.988 144.659 308.39 154.419C305.79 164.179 300.95 173.198 294.254 180.759" stroke="#E2CCCC" stroke-width="4.83" stroke-miterlimit="10"/>
<path d="M142.027 184.575H144.512C145.226 184.592 145.934 184.443 146.581 184.139C147.227 183.835 147.794 183.384 148.236 182.823C148.248 182.81 148.256 182.795 148.261 182.777C149.152 181.559 149.557 180.053 149.399 178.552L149.196 176.972L149.028 175.696L149.638 175.346L159.189 169.712L159.834 169.34C164.497 166.597 164.834 161.481 163.005 156.636C162.973 156.548 162.949 156.467 162.917 156.387C162.836 156.184 162.756 155.994 162.679 155.802C162.211 154.725 161.659 153.687 161.028 152.697C158.614 148.924 155.114 145.854 151.782 145.052C150.849 144.839 149.894 144.733 148.937 144.737C146.94 144.737 144.732 145.119 143.573 146.271C155.962 134.082 170.436 122.642 187.847 119.092C201.645 116.248 215.914 116.627 229.542 120.2C245.463 124.436 259.815 133.241 271.184 145.119C271.783 145.743 272.369 146.373 272.936 147.018C287.186 162.68 296.275 182.462 302.018 202.707" stroke="black" stroke-width="2.5" stroke-miterlimit="10"/>
<path d="M146.396 202.718H317.837" stroke="black" stroke-width="3" stroke-miterlimit="10"/>
<path d="M189.557 202.714H209.01" stroke="black" stroke-width="3.22" stroke-miterlimit="10"/>
<path d="M205.818 159.056C196.792 154.946 191.999 143.611 195.608 134.231C199.911 123.051 213.551 121.751 223.638 124.596C225.699 125.173 227.746 125.825 229.78 126.551C252.461 134.61 273.07 151.34 284.324 172.538C285.274 174.332 286.03 176.175 286.798 178.053C287.832 180.576 288.259 183.307 288.043 186.025C287.827 188.744 286.975 191.373 285.556 193.702C284.137 196.03 282.19 197.992 279.872 199.429C277.554 200.866 274.931 201.737 272.215 201.974L209.01 202.713H189.557C187.838 202.713 186.163 202.175 184.765 201.175C183.368 200.175 182.318 198.762 181.764 197.135C179.631 190.828 182.388 186.07 185.874 182.829C189.511 179.451 194.255 177.521 199.189 177.023L234.696 173.435C235.036 173.401 235.357 173.262 235.617 173.04C235.877 172.817 236.062 172.521 236.148 172.19C236.235 171.86 236.218 171.511 236.101 171.19C235.984 170.869 235.771 170.591 235.492 170.394L205.818 159.056Z" stroke="black" stroke-width="2.5" stroke-miterlimit="10"/>
<path d="M195.731 184.779C196.21 184.504 196.375 183.892 196.099 183.414C195.824 182.935 195.213 182.77 194.734 183.045L195.731 184.779ZM187.545 192.391L186.588 192.103L186.587 192.103L187.545 192.391ZM194.734 183.045C191.408 184.958 187.811 188.045 186.588 192.103L188.502 192.68C189.508 189.345 192.575 186.594 195.731 184.779L194.734 183.045ZM186.587 192.103C185.105 197.025 188.618 201.284 192.149 203.571L193.236 201.892C189.927 199.749 187.42 196.272 188.502 192.68L186.587 192.103Z" fill="black"/>
<path d="M199.398 189.521C199.798 189.141 199.814 188.508 199.434 188.108C199.053 187.707 198.42 187.692 198.02 188.072L199.398 189.521ZM194.813 199.659L193.885 200.032L193.888 200.039L193.891 200.046L194.813 199.659ZM198.02 188.072C194.978 190.966 191.878 195.053 193.885 200.032L195.74 199.285C194.251 195.589 196.393 192.381 199.398 189.521L198.02 188.072ZM193.891 200.046C194.453 201.384 195.328 202.567 196.443 203.496L197.723 201.96C196.855 201.236 196.173 200.314 195.735 199.271L193.891 200.046Z" fill="black"/>
<path d="M205.237 195.226C205.68 194.897 205.772 194.27 205.443 193.827C205.113 193.384 204.487 193.292 204.044 193.621L205.237 195.226ZM204.64 194.424C204.044 193.621 204.044 193.621 204.043 193.622C204.043 193.622 204.043 193.622 204.043 193.622C204.042 193.622 204.041 193.623 204.041 193.623C204.039 193.625 204.037 193.626 204.035 193.628C204.03 193.631 204.024 193.636 204.016 193.642C204.001 193.654 203.979 193.671 203.951 193.692C203.895 193.735 203.817 193.797 203.719 193.876C203.525 194.034 203.255 194.261 202.947 194.543C202.335 195.102 201.546 195.901 200.895 196.822C200.257 197.726 199.673 198.858 199.632 200.066C199.589 201.363 200.176 202.574 201.525 203.522L202.675 201.885C201.813 201.28 201.613 200.68 201.631 200.133C201.652 199.498 201.98 198.754 202.529 197.976C203.066 197.216 203.741 196.527 204.296 196.019C204.571 195.767 204.811 195.566 204.98 195.428C205.065 195.36 205.131 195.307 205.176 195.273C205.198 195.256 205.214 195.243 205.225 195.235C205.23 195.232 205.234 195.229 205.236 195.227C205.237 195.226 205.237 195.226 205.238 195.226C205.238 195.226 205.238 195.226 205.238 195.226C205.237 195.226 205.237 195.226 205.237 195.226C205.237 195.226 205.237 195.226 204.64 194.424Z" fill="black"/>
<path d="M186.771 202.219L186.894 202.717H175.661C171.989 202.717 166.901 202.153 167.381 198.053C167.861 193.954 181.011 192.836 181.011 192.836" stroke="black" stroke-width="2.5" stroke-miterlimit="10"/>
<path d="M166.621 73.311L142.714 76.8884L146.88 79.8246L154.673 86.0648C155.892 86.9233 155.587 88.9484 156.263 90.1783C156.52 92.0346 156.228 93.9253 155.424 95.6179C154.62 97.3103 153.338 98.7307 151.737 99.7041C150.136 100.678 148.285 101.162 146.412 101.096C144.54 101.031 142.727 100.42 141.197 99.3372L122.399 86.1139C120.324 84.6812 118.659 82.732 117.567 80.4587C116.029 72.803 120.749 64.2887 129.831 62.9398L155.962 59.0155L152.108 56.0233L140.241 46.7872C139.224 46.0003 138.376 45.0171 137.746 43.8966C137.482 41.9997 137.791 40.067 138.632 38.3462C139.474 36.6259 140.811 35.196 142.471 34.2401C144.13 33.2843 146.038 32.846 147.949 32.9816C149.859 33.1168 151.686 33.82 153.194 35.0005L174.364 51.4683C176.095 52.798 177.495 54.5103 178.453 56.4717C179.897 63.8718 175.279 72.0111 166.621 73.311Z" fill="#A30000"/>
<path d="M149.032 175.692C149.032 175.692 148.303 169.28 145.833 167.02" stroke="black" stroke-width="2.5" stroke-miterlimit="10"/>
<path d="M118.503 152.677C120.888 151.505 123.493 150.847 126.148 150.744C128.804 150.641 131.451 151.097 133.92 152.081C134.731 152.38 135.611 152.44 136.455 152.254C137.299 152.067 138.072 151.643 138.681 151.03L143.562 146.251" stroke="black" stroke-width="2.5" stroke-miterlimit="10"/>
<path d="M134.018 179.914L138.092 181.746C138.183 181.784 138.281 181.802 138.379 181.799C138.477 181.796 138.573 181.773 138.662 181.731C138.75 181.689 138.829 181.628 138.892 181.554C138.956 181.479 139.003 181.392 139.032 181.298L139.673 179.847" stroke="black" stroke-miterlimit="10"/>
<path d="M135.142 171.62C135.031 171.367 134.737 171.251 134.484 171.362C134.23 171.472 134.115 171.766 134.225 172.02L135.142 171.62ZM135.026 174.314L135.521 174.383L135.521 174.383L135.026 174.314ZM134.225 172.02C134.53 172.719 134.635 173.489 134.531 174.245L135.521 174.383C135.651 173.444 135.52 172.489 135.142 171.62L134.225 172.02ZM134.531 174.245C134.426 175.001 134.114 175.713 133.631 176.303L134.404 176.937C135.005 176.205 135.391 175.321 135.521 174.383L134.531 174.245Z" fill="black"/>
<path d="M143.927 184.571C144.568 183.621 144.564 181.326 144.4 180.404C144.294 179.819 143.31 179.609 143.205 180.198C142.917 181.841 141.064 184.367 139.351 184.571" stroke="black" stroke-miterlimit="10"/>
<path d="M135.7 178.376C138.589 178.376 140.931 176.034 140.931 173.145C140.931 170.256 138.589 167.914 135.7 167.914C132.811 167.914 130.469 170.256 130.469 173.145C130.469 176.034 132.811 178.376 135.7 178.376Z" stroke="black" stroke-width="2" stroke-miterlimit="10"/>
<path d="M133.948 178.071L133.016 180.692C132.369 180.461 131.682 180.36 130.996 180.395C130.31 180.429 129.637 180.599 129.017 180.894C128.396 181.189 127.84 181.603 127.38 182.113C126.919 182.623 126.564 183.219 126.334 183.866" stroke="black" stroke-width="2" stroke-miterlimit="10"/>
<path d="M125.129 179.277C126.776 178.282 128.107 176.824 128.503 174.841C128.832 173.156 128.37 171.148 127.974 169.477C127.593 167.73 127.034 166.028 126.303 164.396C128.846 164.863 131.448 164.923 134.011 164.575C135.206 164.442 140.91 162.263 137.487 161.201C136.091 160.822 134.732 160.319 133.426 159.698C132.417 159.176 130.647 158.16 130.584 156.87C130.58 156.522 130.677 156.18 130.864 155.885C131.05 155.591 131.318 155.358 131.635 155.213C132.107 155 132.62 154.895 133.138 154.904C133.655 154.913 134.164 155.036 134.628 155.266C135.405 155.631 136.115 156.124 136.73 156.723C137.816 157.774 138.408 158.825 140.111 158.556C141.139 158.334 142.134 157.981 143.072 157.505C144.177 156.999 145.078 156.135 145.63 155.052C146.478 153.079 143.597 151.198 142.035 150.634C141.166 150.293 140.217 150.215 139.305 150.409" stroke="black" stroke-width="2.5" stroke-miterlimit="10"/>
<path d="M166.621 73.311L142.715 76.8884L146.881 79.8246L152.27 83.6087C153.327 84.3252 154.232 85.2453 154.93 86.315C155.629 87.3847 156.107 88.5831 156.337 89.8395C156.567 91.0963 156.545 92.3861 156.271 93.6341C155.997 94.8818 155.477 96.0626 154.742 97.1074C154.007 98.1523 153.07 99.0401 151.989 99.7192C150.906 100.398 149.7 100.855 148.439 101.063C147.179 101.27 145.889 101.224 144.647 100.928C143.404 100.632 142.233 100.091 141.201 99.3373L122.403 86.1139C120.328 84.6812 118.663 82.7321 117.571 80.4588C113.574 72.1583 118.248 61.1038 128.692 59.5446L149.424 56.4403L152.108 56.0233L140.241 46.7873C139.245 46.0119 138.411 45.0476 137.787 43.9499C137.163 42.8522 136.762 41.642 136.605 40.389C136.45 39.1364 136.542 37.8649 136.877 36.6473C137.212 35.4301 137.784 34.2906 138.559 33.2942C139.335 32.298 140.299 31.4641 141.397 30.8401C142.495 30.2164 143.704 29.8149 144.957 29.659C146.21 29.5027 147.482 29.5949 148.699 29.9302C149.916 30.2651 151.056 30.837 152.052 31.6123L173.222 48.0802C175.932 50.1411 177.789 53.1267 178.439 56.4683C179.897 63.8718 175.279 72.0111 166.621 73.311Z" stroke="black" stroke-width="2.5" stroke-miterlimit="10"/>
<path d="M114.148 113.952L113.917 107.845L111.209 110.62C110.749 111.089 110.122 111.357 109.465 111.365C108.808 111.373 108.175 111.12 107.705 110.662C107.235 110.202 106.967 109.575 106.959 108.919C106.951 108.262 107.204 107.629 107.663 107.158L112.515 102.204C113.015 101.692 113.655 101.338 114.354 101.186C115.053 101.034 115.782 101.09 116.449 101.348C117.117 101.605 117.694 102.053 118.11 102.636C118.525 103.218 118.761 103.91 118.787 104.625L119.015 110.855L121.012 108.602C121.228 108.357 121.49 108.158 121.783 108.015C122.076 107.872 122.395 107.788 122.72 107.769C123.046 107.749 123.372 107.794 123.68 107.901C123.988 108.008 124.272 108.174 124.516 108.391C124.76 108.607 124.96 108.869 125.103 109.162C125.245 109.455 125.329 109.774 125.349 110.099C125.369 110.424 125.324 110.75 125.218 111.059C125.112 111.367 124.946 111.651 124.73 111.895L120.795 116.334C120.293 116.907 119.63 117.316 118.893 117.507C118.156 117.698 117.378 117.663 116.66 117.406C115.944 117.149 115.321 116.682 114.872 116.066C114.424 115.45 114.172 114.713 114.148 113.952Z" fill="#E8D7F0"/>
<path d="M134.449 124.968L137.332 124.324L135.773 123.272C135.509 123.094 135.326 122.819 135.264 122.506C135.203 122.194 135.267 121.869 135.444 121.605C135.622 121.34 135.897 121.157 136.21 121.096C136.523 121.035 136.847 121.101 137.111 121.279L139.893 123.139C140.182 123.332 140.407 123.605 140.542 123.924C140.676 124.244 140.714 124.596 140.65 124.936C140.586 125.277 140.424 125.592 140.183 125.841C139.942 126.09 139.633 126.263 139.294 126.338L136.341 127.004L137.591 127.757C137.726 127.839 137.844 127.946 137.937 128.072C138.031 128.199 138.098 128.343 138.136 128.496C138.174 128.649 138.181 128.808 138.157 128.964C138.134 129.12 138.079 129.269 137.998 129.404C137.834 129.676 137.568 129.872 137.259 129.949C136.951 130.026 136.624 129.977 136.351 129.814L133.898 128.332C133.583 128.143 133.331 127.864 133.177 127.531C133.022 127.198 132.971 126.826 133.03 126.463C133.089 126.1 133.256 125.764 133.509 125.497C133.762 125.231 134.089 125.046 134.449 124.968Z" fill="#E8D7F0"/>
<path d="M127.157 141.811L127.392 139.884L126.4 140.619C126.317 140.681 126.223 140.726 126.123 140.751C126.022 140.777 125.918 140.782 125.815 140.768C125.713 140.752 125.614 140.717 125.525 140.664C125.436 140.611 125.359 140.541 125.297 140.458C125.173 140.29 125.12 140.08 125.15 139.873C125.18 139.666 125.291 139.48 125.458 139.354L127.21 138.041C127.392 137.905 127.611 137.825 127.838 137.812C128.065 137.799 128.291 137.853 128.488 137.967C128.685 138.081 128.844 138.25 128.946 138.454C129.047 138.658 129.087 138.887 129.06 139.113L128.822 141.082L129.561 140.472C129.641 140.406 129.733 140.357 129.832 140.326C129.932 140.296 130.036 140.286 130.139 140.296C130.242 140.306 130.342 140.337 130.434 140.385C130.525 140.434 130.606 140.501 130.672 140.581C130.737 140.661 130.787 140.753 130.817 140.852C130.847 140.951 130.858 141.056 130.847 141.159C130.838 141.262 130.807 141.362 130.758 141.453C130.709 141.545 130.643 141.626 130.563 141.692L129.105 142.89C128.919 143.038 128.693 143.128 128.455 143.148C128.217 143.168 127.979 143.117 127.771 143.001C127.562 142.886 127.393 142.711 127.283 142.499C127.174 142.287 127.13 142.048 127.157 141.811Z" fill="#E8D7F0"/>
<path d="M241.402 131.355L241.255 131.604C241.143 131.534 241.026 131.473 240.904 131.422L241.402 131.355Z" fill="#353642"/>
</svg>
